<svg width="454" height="454" viewBox="0 0 454 454" fill="none" xmlns="http://www.w3.org/2000/svg">
<path d="M124.623 118.019C136.185 114.832 160.697 108.198 166.247 107.155L174.485 105.417L242.556 75C254.552 83.8355 279.67 102.636 284.18 107.155C288.689 111.675 318.432 109.038 332.74 107.155L350.95 186.24L380 211.443L332.74 340.499H284.18L224.78 377L181.422 350.494L124.623 328.332L115.085 287.921L83 229.259L102.511 186.24L124.623 118.019Z" fill="#F8F8F8"/>
<path d="M227 91C232.1 91 237.2 92.7 240.6 96.1L244 99.5C261 116.5 281.4 125 305.2 125H310.3C320.5 125 329 133.5 329 143.7V148.8C329 172.6 337.5 193 354.5 210L357.9 213.4C361.3 216.8 363 221.9 363 227C363 232.1 361.3 237.2 357.9 240.6L354.5 244C337.5 261 329 281.4 329 305.2V310.3C329 320.5 320.5 329 310.3 329H305.2C281.4 329 261 337.5 244 354.5L240.6 357.9C237.2 361.3 232.1 363 227 363C221.9 363 216.8 361.3 213.4 357.9L210 354.5C193 337.5 172.6 329 148.8 329H143.7C133.5 329 125 320.5 125 310.3V305.2C125 281.4 116.5 261 99.5 244L96.1 240.6C92.7 237.2 91 232.1 91 227C91 221.9 92.7 216.8 96.1 213.4L99.5 210C116.5 193 125 172.6 125 148.8V143.7C125 133.5 133.5 125 143.7 125H148.8C172.6 125 193 116.5 210 99.5L213.4 96.1C216.8 92.7 221.9 91 227 91ZM227 57C213.4 57 199.8 62.1 189.6 72.3L186.2 75.7C176 85.9 162.4 91 148.8 91H143.7C114.8 91 91 114.8 91 143.7V148.8C91 162.4 85.9 176 75.7 186.2L72.3 189.6C51.9 210 51.9 244 72.3 264.4L75.7 267.8C85.9 278 91 291.6 91 305.2V310.3C91 339.2 114.8 363 143.7 363H148.8C162.4 363 176 368.1 186.2 378.3L189.6 381.7C199.8 391.9 213.4 397 227 397C240.6 397 254.2 391.9 264.4 381.7L267.8 378.3C278 368.1 291.6 363 305.2 363H310.3C339.2 363 363 339.2 363 310.3V305.2C363 291.6 368.1 278 378.3 267.8L381.7 264.4C402.1 244 402.1 210 381.7 189.6L378.3 186.2C368.1 176 363 162.4 363 148.8V143.7C363 114.8 339.2 91 310.3 91H305.2C291.6 91 278 85.9 267.8 75.7L264.4 72.3C254.2 62.1 240.6 57 227 57Z" fill="#60a5fa"/>
<g clip-path="url(#clip0_1_2)">
<path d="M317.375 263.562C315.883 263.562 314.452 262.97 313.398 261.915C312.343 260.86 311.75 259.429 311.75 257.938V197.938C311.75 196.446 312.343 195.015 313.398 193.96C314.452 192.905 315.883 192.312 317.375 192.312C318.867 192.312 320.298 192.905 321.352 193.96C322.407 195.015 323 196.446 323 197.938V257.938C323 259.429 322.407 260.86 321.352 261.915C320.298 262.97 318.867 263.562 317.375 263.562Z" fill="#FDD60C"/>
<path d="M290.75 191.375H163.25C161.758 191.375 160.327 191.968 159.273 193.023C158.218 194.077 157.625 195.508 157.625 197V281.375C157.625 282.867 158.218 284.298 159.273 285.352C160.327 286.407 161.758 287 163.25 287C164.742 287 166.173 286.407 167.227 285.352C168.282 284.298 168.875 282.867 168.875 281.375C168.875 280.79 171.417 277.07 183.5 273.5C195.043 270.102 210.5 268.25 227 268.25C243.5 268.25 258.95 270.125 270.5 273.5C282.59 277.055 285.125 280.775 285.125 281.375C285.125 282.867 285.718 284.298 286.773 285.352C287.827 286.407 289.258 287 290.75 287C292.242 287 293.673 286.407 294.727 285.352C295.782 284.298 296.375 282.867 296.375 281.375V197C296.375 195.508 295.782 194.077 294.727 193.023C293.673 191.968 292.242 191.375 290.75 191.375Z" fill="#60a5fa"/>
<path d="M281.75 273.5C270.207 270.102 254.75 268.25 238.25 268.25C236.36 268.25 234.485 268.275 232.625 268.325C246.991 268.7 260.274 270.507 270.5 273.515C282.59 277.07 285.125 280.79 285.125 281.39C285.125 282.882 285.718 284.313 286.773 285.367C287.827 286.422 289.258 287.015 290.75 287.015C292.242 287.015 293.673 286.422 294.727 285.367C295.782 284.313 296.375 282.882 296.375 281.39C296.375 280.79 293.833 277.07 281.75 273.5ZM174.5 191.375H163.25C161.758 191.375 160.327 191.968 159.273 193.023C158.218 194.077 157.625 195.508 157.625 197V281.375C157.625 282.867 158.218 284.298 159.273 285.352C160.327 286.407 161.758 287 163.25 287C164.742 287 166.173 286.407 167.227 285.352C168.282 284.298 168.875 282.867 168.875 281.375V197C168.875 195.508 169.468 194.077 170.523 193.023C171.577 191.968 173.008 191.375 174.5 191.375V191.375Z" fill="#60a5fa"/>
<path d="M273.665 262.719C261.125 259.033 244.55 257 227 257C209.45 257 192.875 259.033 180.335 262.719C165.267 267.151 157.625 273.429 157.625 281.375C157.625 289.321 165.267 295.599 180.335 300.031C192.875 303.717 209.45 305.75 227 305.75C244.55 305.75 261.125 303.717 273.665 300.031C288.736 295.599 296.375 289.321 296.375 281.375C296.375 273.429 288.736 267.151 273.665 262.719Z" fill="#60a5fa"/>
<path d="M168.875 292.625C168.875 284.679 176.517 278.401 191.585 273.969C204.125 270.282 220.7 268.25 238.25 268.25C255.8 268.25 272.375 270.282 284.915 273.969C288.706 275.041 292.393 276.45 295.932 278.18C294.117 271.73 286.655 266.555 273.665 262.719C261.125 259.032 244.55 257 227 257C209.45 257 192.875 259.032 180.335 262.719C165.267 267.151 157.625 273.429 157.625 281.375C157.625 287.067 161.548 291.905 169.317 295.82C169.023 294.781 168.874 293.705 168.875 292.625V292.625Z" fill="#60a5fa"/>
<path d="M314.191 183.256L232.471 149.349C230.738 148.623 228.877 148.249 226.998 148.249C225.119 148.249 223.259 148.623 221.525 149.349L139.809 183.256C137.201 184.338 134.972 186.168 133.404 188.516C131.836 190.864 130.999 193.623 130.999 196.447C130.999 199.27 131.836 202.03 133.404 204.378C134.972 206.726 137.201 208.556 139.809 209.637L221.529 243.545C223.262 244.27 225.123 244.643 227.002 244.643C228.881 244.643 230.742 244.27 232.475 243.545L314.191 209.637C316.799 208.556 319.028 206.726 320.596 204.378C322.164 202.03 323.001 199.27 323.001 196.447C323.001 193.623 322.164 190.864 320.596 188.516C319.028 186.168 316.799 184.338 314.191 183.256V183.256Z" fill="#60a5fa"/>
<path d="M142.25 207.699C142.246 204.874 143.081 202.112 144.649 199.763C146.217 197.414 148.448 195.585 151.059 194.506L232.775 160.599C234.509 159.873 236.369 159.499 238.248 159.499C240.127 159.499 241.988 159.873 243.721 160.599L322.663 193.351C322.168 191.111 321.139 189.023 319.664 187.266C318.189 185.508 316.312 184.133 314.191 183.256L232.471 149.349C230.738 148.623 228.877 148.249 226.998 148.249C225.119 148.249 223.259 148.623 221.525 149.349L139.809 183.256C137.201 184.338 134.972 186.168 133.404 188.516C131.836 190.864 130.999 193.624 130.999 196.447C130.999 199.27 131.836 202.03 133.404 204.378C134.972 206.726 137.201 208.556 139.809 209.637L142.588 210.792C142.363 209.776 142.25 208.739 142.25 207.699V207.699Z" fill="#60a5fa"/>
</g>
<defs>
<clipPath id="clip0_1_2">
<rect width="192" height="192" fill="white" transform="translate(131 131)"/>
</clipPath>ยบ
</defs>
</svg>
